<?xml version="1.0" encoding="UTF-8" standalone="no"?>
<svg width="128px" height="102px" viewBox="0 0 128 102" version="1.1" xmlns="http://www.w3.org/2000/svg" xmlns:xlink="http://www.w3.org/1999/xlink" xmlns:sketch="http://www.bohemiancoding.com/sketch/ns">
    <!-- Generator: Sketch 3.2.2 (9983) - http://www.bohemiancoding.com/sketch -->
    <title>Slice 1</title>
    <desc>Created with Sketch.</desc>
    <defs></defs>
    <g id="Page-1" stroke="none" stroke-width="1" fill="none" fill-rule="evenodd" sketch:type="MSPage">
        <path d="M68.6217097,0.785732302 C68.6877368,0.750707448 68.7538333,0.71579618 68.82,0.681 L69.261,0.681 C76.401243,4.69638884 83.1363121,9.39624619 89.8953745,14.025517 L89.8953745,14.025517 C91.4486085,14.9547118 92.7676323,15.7727773 93.6865244,16.3925779 C104.400191,23.6190369 118.572895,34.6218626 124.374039,39.1800376 C125.135936,39.7743636 125.897204,40.3694293 126.658,40.965 C126.653251,40.9670516 126.6485,40.9690954 126.643747,40.9711317 C126.890339,41.1667569 127.020508,41.2705074 127.020508,41.2705074 L125.418745,41.3424906 C124.304961,41.5668149 123.139846,41.5568025 122.021,41.704 C116.618,42.271 111.21,42.737 105.813,43.319 C105.714592,43.5290245 105.617129,43.7394704 105.520612,43.9503301 L92.1621094,83.27637 L89.1683949,82.9159231 C74.5470119,83.8867529 60.0756488,86.4954523 45.772,89.618 C34.01,92.312 22.324,95.401 10.861,99.193 C9.008,99.759 7.23,100.584 5.327,101 C7.08639679,96.397918 8.45125557,91.6218806 10.3835965,87.0955842 L12.1466195,82.2054528 C12.1314126,82.2203015 12.1162061,82.2351505 12.101,82.25 C13.2091569,79.0848098 14.366543,75.9369945 15.5394516,72.794688 L20.6221101,58.6968186 L0.565629117,58.3233038 C0.377040105,58.3646297 0.188496843,58.4061942 2.13162821e-14,58.448 L2.13162821e-14,58.3661836 L68.6217097,0.785732302 Z" id="Fill-1" fill="#FF0000" sketch:type="MSShapeGroup"></path>
    </g>
</svg>